# xmcd
#
# Track frame offsets:
#	150
#	13657
#	27507
#	44956
#	54477
#	68016
#	82265
#	96439
#	106586
#	116752
#
# Disc length: 1682 seconds
#
# Revision: 0
# Processed by: cddbd v1.5.2PL0 Copyright (c) Steve Scherf et al.
# Submitted via: audiograbber 1.83.01
#
DISCID=8a06900a
DTITLE=Tornado Magnet - Tornado Magnet
DYEAR=2009
DGENRE=Country Folk
TTITLE0=Hook Up
TTITLE1=Pistolero
TTITLE2=Austin City Lights
TTITLE3=Highfield
TTITLE4=The Fall
TTITLE5=King Of The Campus
TTITLE6=Reminds Me Of You
TTITLE7=Red Necks
TTITLE8=South Of The Border
TTITLE9=Whiskey Tango
EXTD=
EXTT0=
EXTT1=
EXTT2=
EXTT3=
EXTT4=
EXTT5=
EXTT6=
EXTT7=
EXTT8=
EXTT9=
PLAYORDER=
